<svg xmlns="http://www.w3.org/2000/svg" width="73.261" height="68.627" viewBox="0 0 73.261 68.627">
  <g id="Grupo_12407" data-name="Grupo 12407" transform="translate(0.5 -15.971)">
    <g id="Grupo_12404" data-name="Grupo 12404" transform="translate(0 16.471)">
      <path id="Caminho_21800" data-name="Caminho 21800" d="M105.774,194.055a1.058,1.058,0,1,0,1.058,1.058A1.058,1.058,0,0,0,105.774,194.055Z" transform="translate(-89.982 -169.068)" fill="#14dfa0" stroke="#14dfa0" stroke-width="1"/>
      <path id="Caminho_21801" data-name="Caminho 21801" d="M47.345,255.76H39.112a1.055,1.055,0,1,0,0,2.111h8.233a1.055,1.055,0,1,0,0-2.111Z" transform="translate(-32.702 -222.091)" fill="#14dfa0" stroke="#14dfa0" stroke-width="1"/>
      <path id="Caminho_21802" data-name="Caminho 21802" d="M47.345,284.339H39.112a1.055,1.055,0,0,0,0,2.111h8.233a1.055,1.055,0,0,0,0-2.111Z" transform="translate(-32.702 -246.649)" fill="#14dfa0" stroke="#14dfa0" stroke-width="1"/>
      <path id="Caminho_21803" data-name="Caminho 21803" d="M38.274,69.727H53.907a3.339,3.339,0,0,0,3.105-4.009h5.669a3.171,3.171,0,1,0,0-2.111H57.013A3.321,3.321,0,0,0,53.907,59.6H38.274c-2.726.105-3.295,2.5-3.105,4.554H30.3a1.649,1.649,0,0,1-1.647-1.647V53.26a3.746,3.746,0,0,0-1.151-2.7,3.746,3.746,0,0,0,1.151-2.7V39.491A1.649,1.649,0,0,1,30.3,37.843h4.87a3.321,3.321,0,0,0,3.105,4.009H53.907a3.11,3.11,0,0,0,3.105-3.107V34.831a3.11,3.11,0,0,0-3.105-3.107H38.274a3.339,3.339,0,0,0-3.105,4.009H30.3a3.735,3.735,0,0,0-1.647.381V24.238A1.649,1.649,0,0,1,30.3,22.591h4.87A3.321,3.321,0,0,0,38.274,26.6H53.907a3.339,3.339,0,0,0,3.105-4.009h5.669a3.171,3.171,0,1,0,0-2.111H57.013a3.321,3.321,0,0,0-3.105-4.009H47.24a1.055,1.055,0,1,0,0,2.111h6.667a1,1,0,0,1,.995,1v3.914a1,1,0,0,1-.995,1H43.127V17.527a1.055,1.055,0,0,0-1.055-1.055h-3.8a3.339,3.339,0,0,0-3.105,4.009H30.3a3.762,3.762,0,0,0-3.758,3.758V47.855A1.649,1.649,0,0,1,24.893,49.5H21.026V42.546a4.4,4.4,0,0,0-4.4-4.4H4.4a4.4,4.4,0,0,0-4.4,4.4V57.732a4.4,4.4,0,0,0,4.4,4.4H16.627a4.4,4.4,0,0,0,4.4-4.4v-2.21a1.055,1.055,0,0,0-2.111,0v2.21a2.291,2.291,0,0,1-2.288,2.289H4.4a2.292,2.292,0,0,1-2.289-2.289V47.167h16.8v3.39a1.055,1.055,0,0,0,1.055,1.055h4.923a1.649,1.649,0,0,1,1.647,1.647V76.876A3.762,3.762,0,0,0,30.3,80.634h4.87A3.193,3.193,0,0,0,38.274,84.1H53.907a3.339,3.339,0,0,0,3.105-4.009h5.669a3.171,3.171,0,1,0,0-2.111H57.013a3.321,3.321,0,0,0-3.105-4.009H38.274a3.11,3.11,0,0,0-3.105,3.107v1.447H30.3a1.649,1.649,0,0,1-1.647-1.647V65.883a3.734,3.734,0,0,0,1.647.381h4.87A3.193,3.193,0,0,0,38.274,69.727Zm27.4-6.124a1.06,1.06,0,1,1-1.06,1.06A1.062,1.062,0,0,1,65.671,63.6ZM54.9,34.831v3.914a1,1,0,0,1-.995,1H43.127V33.835H53.907A1,1,0,0,1,54.9,34.831Zm-17.623,0a1,1,0,0,1,.995-1h2.742v5.907H38.274a1,1,0,0,1-.995-1ZM65.671,20.475a1.06,1.06,0,1,1-1.06,1.06A1.061,1.061,0,0,1,65.671,20.475Zm-28.392-.9a1,1,0,0,1,.995-1h2.742v5.907H38.274a1,1,0,0,1-.995-1ZM2.111,45.057V42.546A2.292,2.292,0,0,1,4.4,40.257H16.627a2.291,2.291,0,0,1,2.288,2.289v2.511ZM65.671,77.973a1.06,1.06,0,1,1-1.06,1.06A1.062,1.062,0,0,1,65.671,77.973Zm-10.769-.9v3.914a1,1,0,0,1-.995,1H43.127V76.08H53.907a1,1,0,0,1,.995,1Zm-17.623,0a1,1,0,0,1,.995-1h2.742v5.907H38.274a1,1,0,0,1-.995-1ZM54.9,62.706v3.914a1,1,0,0,1-.995,1H43.127V61.71H53.907a1,1,0,0,1,.995,1Zm-17.623,0a1,1,0,0,1,.995-1h2.742v5.907H38.274a1,1,0,0,1-.995-1Z" transform="translate(0 -16.471)" fill="#14dfa0" stroke="#14dfa0" stroke-width="1"/>
      <path id="Caminho_21804" data-name="Caminho 21804" d="M319.644,217.875H304.011a3.339,3.339,0,0,0-3.105,4.009h-5.643a1.649,1.649,0,0,1-1.647-1.647V218.22a1.055,1.055,0,1,0-2.111,0v2.016a3.762,3.762,0,0,0,3.758,3.758h5.643A3.321,3.321,0,0,0,304.011,228h15.634a3.11,3.11,0,0,0,3.105-3.107v-3.914A3.109,3.109,0,0,0,319.644,217.875Zm-15.634,8.017a1,1,0,0,1-.995-1v-3.914a1,1,0,0,1,.995-1h2.742v5.907Zm16.628-1a1,1,0,0,1-.995,1H308.864v-5.907h10.781a1,1,0,0,1,.995,1Z" transform="translate(-250.488 -188.927)" fill="#14dfa0" stroke="#14dfa0" stroke-width="1"/>
    </g>
  </g>
</svg>
