<svg xmlns="http://www.w3.org/2000/svg" width="41.515" height="57.664" viewBox="0 0 41.515 57.664">
  <path id="Caminho_21805" data-name="Caminho 21805" d="M42.754,0h-14.1a1.184,1.184,0,0,0-1.18,1.18v54.3a1.184,1.184,0,0,0,1.18,1.18h14.1a1.184,1.184,0,0,0,1.18-1.18V1.181A1.184,1.184,0,0,0,42.754,0Zm-1.18,54.3H29.839V49.061h6.989a1.184,1.184,0,0,0,1.181-1.18,1.2,1.2,0,0,0-1.181-1.18H29.839V41.388h5.241a1.184,1.184,0,0,0,1.18-1.18,1.169,1.169,0,0,0-1.18-1.181H29.839V33.691h6.989a1.18,1.18,0,1,0,0-2.361H29.839V25.995h5.241a1.169,1.169,0,0,0,1.18-1.18,1.184,1.184,0,0,0-1.18-1.18H29.839V18.321h6.989a1.2,1.2,0,0,0,1.181-1.18,1.184,1.184,0,0,0-1.181-1.18H29.839V10.624h5.241a1.169,1.169,0,0,0,1.18-1.18,1.184,1.184,0,0,0-1.18-1.18H29.839v-5.9H41.574ZM18.766,0h-9.7a1.169,1.169,0,0,0-1.18,1.18V8.264H4.6a1.2,1.2,0,0,0-1.18,1.18V19.62A1.2,1.2,0,0,0,4.6,20.8a1.184,1.184,0,0,0,1.18-1.18v-9h2.1v34.47a1.234,1.234,0,0,0,.094.5L12.84,55.979a1.185,1.185,0,0,0,2.149,0l4.864-10.388a1.234,1.234,0,0,0,.094-.5V1.181A1.169,1.169,0,0,0,18.766,0ZM10.243,2.361h7.343v5.9H10.243ZM13.926,52.7l-3-6.422h6Zm3.66-8.783H10.243V10.624h7.343Z" transform="translate(-2.92 0.5)" fill="#14dfa0" stroke="#14dfa0" stroke-width="1"/>
</svg>
