<svg xmlns="http://www.w3.org/2000/svg" width="68.922" height="68.626" viewBox="0 0 68.922 68.626">
  <path id="assessment" d="M31,66.217a1.409,1.409,0,0,1-1.409,1.409H12.68A12.7,12.7,0,0,1,0,54.946V12.683A12.7,12.7,0,0,1,12.68,0h31a12.693,12.693,0,0,1,12.68,12.677V21.13a1.409,1.409,0,1,1-2.818,0V12.677a9.875,9.875,0,0,0-9.862-9.862h-31A9.875,9.875,0,0,0,2.818,12.68V54.943a9.875,9.875,0,0,0,9.862,9.862H29.586A1.409,1.409,0,0,1,31,66.215Zm36.219,1a1.415,1.415,0,0,1-1.995,0L55.575,57.57a18.365,18.365,0,1,1,1.992-1.992l9.645,9.645a1.41,1.41,0,0,1,0,1.992Zm-8.042-23.54a15.5,15.5,0,1,0-15.5,15.5A15.516,15.516,0,0,0,59.173,43.675ZM18.315,14.089H12.68a1.409,1.409,0,0,0,0,2.818h5.636a1.409,1.409,0,1,0,0-2.818Zm0,28.178H12.68a1.409,1.409,0,0,0,0,2.818h5.636a1.409,1.409,0,1,0,0-2.818Zm8.453-28.178a1.409,1.409,0,0,0,0,2.818H43.675a1.409,1.409,0,0,0,0-2.818ZM18.315,28.178H12.68a1.409,1.409,0,0,0,0,2.818h5.636a1.409,1.409,0,1,0,0-2.818Zm32.807,11.64L43.5,47.195a2.477,2.477,0,0,1-3.446.011l-3.841-3.79a1.408,1.408,0,1,0-1.978,2l3.843,3.8a5.3,5.3,0,0,0,7.391-.006l7.616-7.366a1.409,1.409,0,0,0-1.958-2.026Z" transform="translate(0.5 0.5)" fill="#14dfa0" stroke="#14dfa0" stroke-width="1"/>
</svg>
