<svg xmlns="http://www.w3.org/2000/svg" width="60.001" height="46" viewBox="0 0 60.001 46">
  <g id="Grupo_12401" data-name="Grupo 12401" transform="translate(-2 -9)">
    <path id="Caminho_21782" data-name="Caminho 21782" d="M61,26H52a1,1,0,0,0-1-1H39.17c-.71-2.61-1.79-4-3.17-4H6c-2.75,0-4,5.7-4,11S3.25,43,6,43H36c1.37,0,2.46-1.39,3.17-4H54a1,1,0,0,0,1-1V35h2a1,1,0,0,0,1-1V32h3a1,1,0,0,0,1-1V27A1,1,0,0,0,61,26ZM35.98,23c.13.04.62.51,1.1,2H34.9c.41-1.28.85-1.93,1.07-2ZM6.01,41c-.36-.1-1.12-1.44-1.59-4H10V35H4.14C4.05,34.1,4,33.1,4,32s.05-2.1.14-3H18V27H4.42c.47-2.56,1.23-3.9,1.58-4H33.57a19.542,19.542,0,0,0-1.51,6.94C32.02,30.6,32,31.29,32,32s.02,1.4.06,2.06A19.327,19.327,0,0,0,33.57,41Zm30,0c-.24-.07-.69-.72-1.1-2h2.17C36.6,40.5,36.12,40.97,36.01,41Zm16.98-4H34.41c-.11-.59-.2-1.26-.27-2H53v2Zm3-4H34.02c-.01-.33-.03-.65-.03-1s.02-.67.03-1h1.97V29H34.13c.07-.74.17-1.41.27-2H49.98v2h-12v2h18v2Zm4-3h-2a1,1,0,0,0-1-1h-5V28h8Z" fill="#fff"/>
    <path id="Caminho_21783" data-name="Caminho 21783" d="M14,31H29v2H14Z" fill="#fff"/>
    <path id="Caminho_21784" data-name="Caminho 21784" d="M10,31h2v2H10Z" fill="#fff"/>
    <path id="Caminho_21785" data-name="Caminho 21785" d="M20,27h2v2H20Z" fill="#fff"/>
    <path id="Caminho_21786" data-name="Caminho 21786" d="M12,35h2v2H12Z" fill="#fff"/>
    <path id="Caminho_21787" data-name="Caminho 21787" d="M42.55,20.89A1,1,0,0,0,43,21h9v1a.985.985,0,0,0,.46.84A.949.949,0,0,0,53,23a1.023,1.023,0,0,0,.42-.09l8-3.68a1,1,0,0,0,.06-1.79l-8-4.32a1,1,0,0,0-.99.02A1.012,1.012,0,0,0,52,14v1H45.24L33.45,9.11A1,1,0,0,0,33,9H6v2H32.76l11.79,5.89A1,1,0,0,0,45,17h8a1,1,0,0,0,1-1v-.32l4.76,2.57L54,20.44V20a1,1,0,0,0-1-1H43.24L31.45,13.11A1,1,0,0,0,31,13H2v2H30.76Z" fill="#fff"/>
    <path id="Caminho_21788" data-name="Caminho 21788" d="M61.42,44.77l-8-3.68a1,1,0,0,0-.96.07A.985.985,0,0,0,52,42v1H43a1,1,0,0,0-.45.11L30.76,49H6v2H31a1,1,0,0,0,.45-.11L43.24,45H53a1,1,0,0,0,1-1v-.44l4.76,2.19L54,48.32V48a1,1,0,0,0-1-1H45a1,1,0,0,0-.45.11L32.76,53H2v2H33a1,1,0,0,0,.45-.11L45.24,49H52v1a1.012,1.012,0,0,0,.49.86,1,1,0,0,0,.99.02l8-4.32a.984.984,0,0,0,.52-.91,1.008,1.008,0,0,0-.58-.88Z" fill="#fff"/>
    <path id="Caminho_21789" data-name="Caminho 21789" d="M2,49H4v2H2Z" fill="#fff"/>
    <path id="Caminho_21790" data-name="Caminho 21790" d="M2,9H4v2H2Z" fill="#fff"/>
  </g>
</svg>
