<svg xmlns="http://www.w3.org/2000/svg" width="66.536" height="52.688" viewBox="0 0 66.536 52.688">
  <g id="Grupo_12403" data-name="Grupo 12403" transform="translate(0 -53.28)">
    <path id="Caminho_21797" data-name="Caminho 21797" d="M66.536,80.64a4.456,4.456,0,0,0-1.314-3.171l-1.245-1.245A.975.975,0,0,0,62.6,77.6l1.245,1.245a2.535,2.535,0,0,1,0,3.586,13.388,13.388,0,0,1-18.933,0L31.536,69.059a2.535,2.535,0,0,1,0-3.586L39.209,57.8a2.534,2.534,0,0,1,3.584,0L59.385,74.39a.975.975,0,0,0,1.378-1.378l-16.59-16.59a4.481,4.481,0,0,0-6.207-.129L36.5,54.832a5.294,5.294,0,0,0-7.489,0l-1.687,1.687A.975.975,0,1,0,28.707,57.9l1.687-1.687a3.345,3.345,0,0,1,4.732,0l1.458,1.458-6.427,6.427a4.484,4.484,0,0,0,0,6.342L43.532,83.811a15.306,15.306,0,0,0,5.131,3.4l-6.685,6.685a3.35,3.35,0,0,1-4.732,0l-19.9-19.9a3.351,3.351,0,0,1,0-4.733l8.148-8.148a.975.975,0,1,0-1.378-1.378L15.967,67.88a5.3,5.3,0,0,0,0,7.49l4.558,4.558-1.506,1.506a3.469,3.469,0,0,0,0,4.9l1.353,1.353L17.362,90.7H10.2V88.285a4.651,4.651,0,0,0-1.9-3.739.975.975,0,1,0-1.152,1.573,2.7,2.7,0,0,1,1.1,2.166v13.049a2.688,2.688,0,0,1-2.685,2.685H1.949V85.6H3.3a.975.975,0,1,0,0-1.949H.975A.975.975,0,0,0,0,84.626v20.367a.975.975,0,0,0,.975.975h4.6a4.639,4.639,0,0,0,4.634-4.634V98.041h8.679a3.648,3.648,0,0,0,2.6-1.075l4.088-4.088,1.353,1.353a3.461,3.461,0,0,0,4.9,0l1.506-1.505,2.544,2.544a5.3,5.3,0,0,0,7.488,0l.57-.57,4.641,4.641a.974.974,0,0,0,1.378,0L60.477,88.81a.974.974,0,0,0,0-1.378l-.27-.27a15.309,15.309,0,0,0,5.015-3.349A4.455,4.455,0,0,0,66.536,80.64ZM20.1,95.588a1.711,1.711,0,0,1-1.218.5H10.2V92.645h7.562a.974.974,0,0,0,.689-.286l3.3-3.3L24.189,91.5Zm10.338-2.734a1.511,1.511,0,0,1-2.14,0l-7.9-7.9a1.517,1.517,0,0,1,0-2.141L21.9,81.307,31.946,91.349ZM58.41,88.12l-9.154,9.154L45.3,93.323l5.449-5.449a15.526,15.526,0,0,0,7.38-.031Z" fill="#fff"/>
    <path id="Caminho_21798" data-name="Caminho 21798" d="M276.032,297.829a.975.975,0,0,0,.689-1.664l-3.365-3.365a.975.975,0,0,0-1.378,1.378l3.365,3.365A.971.971,0,0,0,276.032,297.829Z" transform="translate(-236.385 -208.146)" fill="#fff"/>
  </g>
</svg>
