<svg xmlns="http://www.w3.org/2000/svg" width="60.5" height="61.5" viewBox="0 0 60.5 61.5">
  <g id="Icon" transform="translate(0.5 0)">
    <rect id="Ellipse_2" data-name="Ellipse 2" width="54" height="54" rx="20" transform="translate(6 0)" fill="#3c5aa3"/>
    <rect id="Ellipse_2-2" data-name="Ellipse 2" width="54" height="54" rx="20" transform="translate(0 7)" fill="none" stroke="#14dfa0" stroke-width="1"/>
    <path id="star" d="M27.559,10.138a3.676,3.676,0,0,0-3.546-2.574H18.961L17.427,2.782a3.731,3.731,0,0,0-7.106,0L8.786,7.564H3.734a3.731,3.731,0,0,0-2.2,6.743l4.112,3.006L4.086,22.155A3.732,3.732,0,0,0,9.849,26.31l4.025-2.962L17.9,26.307a3.731,3.731,0,0,0,5.762-4.152L22.1,17.314l4.116-3.006a3.673,3.673,0,0,0,1.345-4.169Zm-2.709,2.3-4.791,3.5a1.156,1.156,0,0,0-.419,1.29l1.821,5.631a1.419,1.419,0,0,1-2.191,1.578l-4.712-3.469a1.156,1.156,0,0,0-1.369,0L8.477,24.442a1.419,1.419,0,0,1-2.2-1.578l1.827-5.631a1.156,1.156,0,0,0-.419-1.29L2.9,12.44a1.419,1.419,0,0,1,.837-2.563h5.9a1.156,1.156,0,0,0,1.1-.8l1.792-5.586a1.419,1.419,0,0,1,2.7,0l1.792,5.586a1.156,1.156,0,0,0,1.1.8h5.9a1.419,1.419,0,0,1,.837,2.563Z" transform="translate(18.992 13.811)" fill="#fff"/>
  </g>
</svg>
