<svg xmlns="http://www.w3.org/2000/svg" width="35.958" height="36.131" viewBox="0 0 35.958 36.131">
  <path id="whatsapp" d="M30.969,5.251A17.908,17.908,0,0,0,2.79,26.854L.25,36.131l9.491-2.49A17.885,17.885,0,0,0,18.3,35.821H18.3A17.912,17.912,0,0,0,30.969,5.251ZM18.3,32.8H18.3a14.863,14.863,0,0,1-7.574-2.074l-.543-.323L4.549,31.878l1.5-5.491L5.7,25.823A14.881,14.881,0,1,1,18.3,32.8Zm8.163-11.145c-.447-.224-2.647-1.306-3.057-1.455s-.708-.224-1.006.224-1.156,1.455-1.417,1.754-.522.336-.969.112a12.219,12.219,0,0,1-3.6-2.22,13.494,13.494,0,0,1-2.489-3.1c-.261-.448,0-.667.2-.913a12.655,12.655,0,0,0,1.118-1.53.823.823,0,0,0-.037-.784c-.112-.224-1.006-2.426-1.379-3.322-.363-.872-.732-.754-1.007-.768s-.559-.016-.857-.016a1.643,1.643,0,0,0-1.193.56,5.017,5.017,0,0,0-1.566,3.732,8.7,8.7,0,0,0,1.827,4.628c.224.3,3.155,4.817,7.642,6.755a25.607,25.607,0,0,0,2.55.943,6.133,6.133,0,0,0,2.818.177c.86-.129,2.647-1.082,3.02-2.127a3.738,3.738,0,0,0,.261-2.127C27.213,21.988,26.914,21.876,26.467,21.652Zm0,0" transform="translate(-0.25)" fill="#fff" fill-rule="evenodd"/>
</svg>
