<svg xmlns="http://www.w3.org/2000/svg" width="43.32" height="51.984" viewBox="0 0 43.32 51.984">
  <path id="add-document" d="M32.324,34.656a2.166,2.166,0,0,1-2.166,2.166H25.826v4.332a2.166,2.166,0,1,1-4.332,0V36.822H17.162a2.166,2.166,0,0,1,0-4.332h4.332V28.158a2.166,2.166,0,1,1,4.332,0V32.49h4.332A2.166,2.166,0,0,1,32.324,34.656Zm13-11.945V41.154a10.843,10.843,0,0,1-10.83,10.83H12.83A10.843,10.843,0,0,1,2,41.154V10.83A10.843,10.843,0,0,1,12.83,0h9.779A15.071,15.071,0,0,1,33.331,4.44l7.546,7.551A15.056,15.056,0,0,1,45.32,22.71ZM30.268,7.5a10.852,10.852,0,0,0-2.276-1.689v9.348a2.166,2.166,0,0,0,2.166,2.166h9.348a10.793,10.793,0,0,0-1.692-2.274ZM40.988,22.71c0-.357-.069-.7-.1-1.051H30.158a6.5,6.5,0,0,1-6.5-6.5V4.434c-.351-.032-.7-.1-1.051-.1H12.83a6.5,6.5,0,0,0-6.5,6.5V41.154a6.5,6.5,0,0,0,6.5,6.5H34.49a6.5,6.5,0,0,0,6.5-6.5Z" transform="translate(-2)" fill="#fff"/>
</svg>
