<svg xmlns="http://www.w3.org/2000/svg" width="60.5" height="61.5" viewBox="0 0 60.5 61.5">
  <g id="Icon" transform="translate(0.795 0)">
    <rect id="Ellipse_2" data-name="Ellipse 2" width="54" height="54" rx="20" transform="translate(5.705 0)" fill="#3c5aa3"/>
    <rect id="Ellipse_2-2" data-name="Ellipse 2" width="54" height="54" rx="20" transform="translate(-0.295 7)" fill="none" stroke="#14dfa0" stroke-width="1"/>
    <path id="assept-document" d="M22.09,6.2l-3.9-3.9A7.783,7.783,0,0,0,12.649,0H7.6A5.6,5.6,0,0,0,2,5.6V21.265a5.6,5.6,0,0,0,5.6,5.6H18.788a5.6,5.6,0,0,0,5.6-5.6v-9.53A7.783,7.783,0,0,0,22.09,6.2ZM20.507,7.779a5.616,5.616,0,0,1,.874,1.175H16.55a1.119,1.119,0,0,1-1.119-1.119V3a5.616,5.616,0,0,1,1.175.874Zm1.639,13.487a3.358,3.358,0,0,1-3.358,3.358H7.6a3.358,3.358,0,0,1-3.358-3.358V5.6A3.358,3.358,0,0,1,7.6,2.238h5.053c.185,0,.362.036.543.053V7.835a3.358,3.358,0,0,0,3.358,3.358h5.544c.017.181.053.358.053.543ZM18.479,14.9a1.119,1.119,0,0,1-.039,1.581L14.423,20.3a3.358,3.358,0,0,1-4.73-.019L7.97,18.744a1.12,1.12,0,1,1,1.491-1.672l1.774,1.583a1.119,1.119,0,0,0,1.63.045l4.029-3.84a1.119,1.119,0,0,1,1.586.039Z" transform="translate(20.368 14)" fill="#fff"/>
  </g>
</svg>
