<svg xmlns="http://www.w3.org/2000/svg" width="44.628" height="57.851" viewBox="0 0 44.628 57.851">
  <path id="Caminho_21799" data-name="Caminho 21799" d="M20.382,59.142a4.137,4.137,0,0,0-4.132,4.132V64.1H41.043v-.826a4.137,4.137,0,0,0-4.132-4.132H34.432v-.826a2.479,2.479,0,0,0-4.959,0v.826H27.82V17.254a5.813,5.813,0,0,0,2.74-2.74h16.6a.5.5,0,0,1,.5.5v1.157H46V25.26a10.758,10.758,0,0,0-6.612,9.915v2.479h3.354a7.435,7.435,0,0,0,14.779,0h3.354V35.175a10.758,10.758,0,0,0-6.612-9.915V16.167H52.613v-3.8a2.813,2.813,0,0,0-2.81-2.81H30.56a5.78,5.78,0,1,0-7.7,7.7V59.142ZM50.134,42.613a5.789,5.789,0,0,1-5.719-4.959H55.853a5.789,5.789,0,0,1-5.719,4.959Zm4.132-15.525a9.094,9.094,0,0,1,4.959,8.087V36H41.043v-.826a9.083,9.083,0,0,1,13.223-8.087ZM52.613,17.82v6.912a10.385,10.385,0,0,0-4.959,0V17.82ZM31.06,11.209H49.8a1.158,1.158,0,0,1,1.157,1.157v3.8H49.308V15.01a2.151,2.151,0,0,0-2.149-2.149H31.06A5.206,5.206,0,0,0,31.06,11.209Zm.066,47.107a.826.826,0,1,1,1.653,0v.826H31.126ZM21.209,12.035a4.13,4.13,0,1,1,7.43,2.479,4.2,4.2,0,0,1-1.645,1.305,4.137,4.137,0,0,1-5.785-3.785Zm4.959,5.719V59.142H24.514V17.754A5.206,5.206,0,0,0,26.167,17.754ZM27.82,60.8h9.091a2.483,2.483,0,0,1,2.338,1.653h-21.2A2.483,2.483,0,0,1,20.382,60.8Z" transform="translate(-16.25 -6.25)" fill="#fff"/>
</svg>
