<svg xmlns="http://www.w3.org/2000/svg" width="47" height="57.851" viewBox="0 0 47 57.851">
  <g id="Grupo_12402" data-name="Grupo 12402" transform="translate(-6.004 0.001)">
    <path id="Caminho_21791" data-name="Caminho 21791" d="M55.559,23.886h-.9V18.463a.9.9,0,0,0-.9-.9V4.9a.9.9,0,0,0-1.808,0V17.559H50.135V11.231a.9.9,0,1,0-1.808,0v6.327H46.52V4.9a.9.9,0,1,0-1.808,0V17.559a.9.9,0,0,0-.9.9v5.424h-.9a.9.9,0,0,0-.9.9V57.331a.9.9,0,0,0,.9.9H55.559a.9.9,0,0,0,.9-.9V24.79A.9.9,0,0,0,55.559,23.886Zm-9.943-4.52h7.231v4.52H45.616Zm9.039,37.061H43.808V25.694H54.655Z" transform="translate(-3.459 -0.384)" fill="#fff"/>
    <path id="Caminho_21792" data-name="Caminho 21792" d="M35.135,23.5h-.9V17.174a.9.9,0,0,0-.9-.9h-.9V.9a.9.9,0,0,0-1.808,0V16.271h-.9a.9.9,0,0,0-.9.9V23.5h-.9a.9.9,0,0,0-.9.9V56.947a.9.9,0,0,0,.9.9h7.231a.9.9,0,0,0,.9-.9V24.406A.9.9,0,0,0,35.135,23.5Zm-4.52-5.424h1.808V23.5H30.616Zm3.616,37.964H28.808V25.31h5.424Z" transform="translate(-2.017 0)" fill="#fff"/>
    <path id="Caminho_21793" data-name="Caminho 21793" d="M20.728,2.977c-.153.153-3.663,3.8-4.7,14.2h-.975c.18-10.626,3.4-15.7,3.448-15.771A.9.9,0,0,0,17,.4,19.191,19.191,0,0,0,15.04,4.93V.9a.9.9,0,0,0-1.808,0V4.93A19.122,19.122,0,0,0,11.272.4a.9.9,0,0,0-1.505,1c.033.052,3.269,5.122,3.448,15.772H12.24c-1.034-10.4-4.544-14.045-4.7-14.2A.9.9,0,0,0,6.261,4.25c.033.033,3.183,3.4,4.164,12.943a.9.9,0,0,0-.809.885V23.5h-.9a.9.9,0,0,0-.9.9V56.947a.9.9,0,0,0,.9.9H19.559a.9.9,0,0,0,.9-.9V24.406a.9.9,0,0,0-.9-.9h-.9V18.078a.9.9,0,0,0-.809-.885c.978-9.5,4.106-12.883,4.164-12.943a.9.9,0,0,0-1.283-1.274Zm-5,22.333L9.616,28.367V25.31Zm2.925,14.808-9.039,4.52v-3.4l9.039-4.52ZM9.616,46.658l9.039-4.52v3.4l-9.039,4.52Zm9.039-11.964-9.039,4.52v-3.4l9.039-4.52ZM9.616,52.082l9.039-4.52v3.4l-9.039,4.52Zm9.039-22.811L9.616,33.79v-3.4l9.039-4.52ZM12.541,56.043l6.114-3.057v3.057ZM11.424,23.5v-4.52h5.424V23.5Z" fill="#fff"/>
    <path id="Caminho_21794" data-name="Caminho 21794" d="M31.9,35a.9.9,0,0,0-.9.9V49.463a.9.9,0,0,0,1.808,0V35.9A.9.9,0,0,0,31.9,35Z" transform="translate(-2.402 -3.363)" fill="#fff"/>
    <circle id="Elipse_357" data-name="Elipse 357" cx="0.904" cy="0.904" r="0.904" transform="translate(28.598 28.021)" fill="#fff"/>
    <circle id="Elipse_358" data-name="Elipse 358" cx="0.904" cy="0.904" r="0.904" transform="translate(44.869 0)" fill="#fff"/>
    <circle id="Elipse_359" data-name="Elipse 359" cx="0.904" cy="0.904" r="0.904" transform="translate(41.253 0)" fill="#fff"/>
    <circle id="Elipse_360" data-name="Elipse 360" cx="0.904" cy="0.904" r="0.904" transform="translate(48.484 0)" fill="#fff"/>
    <path id="Caminho_21795" data-name="Caminho 21795" d="M46.9,30a.9.9,0,0,0-.9.9V44.463a.9.9,0,0,0,1.808,0V30.9A.9.9,0,0,0,46.9,30Z" transform="translate(-3.843 -2.883)" fill="#fff"/>
    <circle id="Elipse_361" data-name="Elipse 361" cx="0.904" cy="0.904" r="0.904" transform="translate(42.157 44.292)" fill="#fff"/>
    <path id="Caminho_21796" data-name="Caminho 21796" d="M49.9,8.52a.9.9,0,0,0,.9-.9V4.9A.9.9,0,0,0,49,4.9V7.616A.9.9,0,0,0,49.9,8.52Z" transform="translate(-4.131 -0.384)" fill="#fff"/>
  </g>
</svg>
