<svg xmlns="http://www.w3.org/2000/svg" width="52.197" height="52.197" viewBox="0 0 52.197 52.197">
  <g id="layer1" transform="translate(-33.286 -30.882)">
    <path id="path60382" d="M58.8,41.241a5.26,5.26,0,0,1-5.227,5.227H37.855c-.961,0-.956-3.477,0-3.481H53.571a1.711,1.711,0,0,0,1.747-1.747V39.109a1.7,1.7,0,0,0-1.747-1.734H37.919c-.961,0-.956-3.477,0-3.481H53.571A5.249,5.249,0,0,1,58.8,39.109Z" transform="translate(21.466 16.797)" fill="#14dfa0"/>
    <path id="path60384" d="M55.318,38.756a5.26,5.26,0,0,1-5.227,5.227H37.855c-.961,0-.956-3.477,0-3.481H50.09a1.711,1.711,0,0,0,1.747-1.747V36.624A1.7,1.7,0,0,0,50.09,34.89H37.919c-.961,0-.956-3.477,0-3.481H50.09a5.249,5.249,0,0,1,5.227,5.215Z" transform="translate(21.466 2.944)" fill="#14dfa0"/>
    <path id="path60386" d="M64.018,43.725a5.26,5.26,0,0,1-5.227,5.227H37.855c-.961,0-.956-3.477,0-3.481H58.79a1.711,1.711,0,0,0,1.747-1.747V41.593a1.7,1.7,0,0,0-1.747-1.734H37.919c-.961,0-.956-3.477,0-3.481H58.79a5.249,5.249,0,0,1,5.227,5.215Z" transform="translate(21.466 30.649)" fill="#14dfa0"/>
    <path id="rect60495" d="M35.188,41.241a5.26,5.26,0,0,0,5.227,5.227h8.43c.961,0,.956-3.477,0-3.481h-8.43a1.711,1.711,0,0,1-1.747-1.747V39.109a1.7,1.7,0,0,1,1.747-1.734h8.366c.961,0,.956-3.477,0-3.481H40.415a5.249,5.249,0,0,0-5.227,5.215Z" transform="translate(10.603 16.797)" fill="#14dfa0"/>
    <path id="path60372" d="M33.286,38.756a5.26,5.26,0,0,0,5.227,5.227H59.449c.961,0,.956-3.477,0-3.481H38.514a1.711,1.711,0,0,1-1.747-1.747V36.624a1.7,1.7,0,0,1,1.747-1.734H59.385c.961,0,.956-3.477,0-3.481H38.514a5.249,5.249,0,0,0-5.227,5.215Z" transform="translate(0 2.944)" fill="#14dfa0"/>
    <path id="path60380" d="M33.816,43.725a5.26,5.26,0,0,0,5.227,5.227H56.5c.961,0,.956-3.477,0-3.481H39.043A1.711,1.711,0,0,1,37.3,43.725V41.593a1.7,1.7,0,0,1,1.747-1.734H56.434c.961,0,.956-3.477,0-3.481H39.043a5.249,5.249,0,0,0-5.227,5.215Z" transform="translate(2.951 30.649)" fill="#14dfa0"/>
    <path id="path60173" d="M40.472,32.616a1.74,1.74,0,0,0-3.481,0V81.332a1.74,1.74,0,1,0,3.481,0Z" transform="translate(20.658 0)" fill="#14dfa0"/>
  </g>
</svg>
