<svg xmlns="http://www.w3.org/2000/svg" width="50.609" height="76.549" viewBox="0 0 50.609 76.549">
  <g id="Grupo_12360" data-name="Grupo 12360" transform="translate(-3980.131 537.049)">
    <path id="Caminho_21775" data-name="Caminho 21775" d="M141.184,9.871a4.935,4.935,0,1,0-4.934-4.937,4.935,4.935,0,0,0,4.934,4.937Z" transform="translate(3884.622 -537.049)" fill="#3c5aa3"/>
    <path id="Caminho_21776" data-name="Caminho 21776" d="M141.184,67.11a4.934,4.934,0,1,0,4.934,4.934A4.935,4.935,0,0,0,141.184,67.11Z" transform="translate(3884.622 -584.092)" fill="#14dfa0"/>
    <path id="Caminho_21777" data-name="Caminho 21777" d="M0,26.112V77.656H8.926V62.49a25.374,25.374,0,0,0,15.606,5.281h11.2V58.845h-11.2c-8.606,0-15.606-6.342-15.606-14.135s7-14.135,15.606-14.135h11.2V21.65h-11.2A25.381,25.381,0,0,0,8.926,26.931v-.816a15.624,15.624,0,0,1,15.6-15.606h11.2V1.58h-11.2A24.558,24.558,0,0,0,0,26.112Z" transform="translate(3980.131 -538.156)" fill="#061534"/>
  </g>
</svg>
