<svg id="Camada_1-2" xmlns="http://www.w3.org/2000/svg" width="183.738" height="76.549" viewBox="0 0 183.738 76.549">
  <path id="Caminho_21765" data-name="Caminho 21765" d="M166,128.947a11.931,11.931,0,0,1-8.893-3.576,12.872,12.872,0,0,1,0-17.669A11.957,11.957,0,0,1,166,104.14a12.153,12.153,0,0,1,5.98,1.516,11.12,11.12,0,0,1,4.276,4.106l-4.055,2.35a6.313,6.313,0,0,0-2.521-2.506,8.161,8.161,0,0,0-9.288,1.28,8.534,8.534,0,0,0,0,11.279,7.487,7.487,0,0,0,5.607,2.18,7.6,7.6,0,0,0,3.7-.9,6.136,6.136,0,0,0,2.506-2.47l4.055,2.35A11.142,11.142,0,0,1,172,127.428a12.131,12.131,0,0,1-6,1.516Z" transform="translate(-107.671 -73)" fill="#fff"/>
  <path id="Caminho_21766" data-name="Caminho 21766" d="M249.6,127.4h4.4v17.038h-4.4v-2.009a6.69,6.69,0,0,1-5.556,2.488,7.559,7.559,0,0,1-5.846-2.607,9.6,9.6,0,0,1,0-12.78,7.725,7.725,0,0,1,5.846-2.607,6.69,6.69,0,0,1,5.556,2.488V127.4Zm-8.112,11.979a4.538,4.538,0,0,0,3.373,1.346,4.6,4.6,0,0,0,3.391-1.346,5.12,5.12,0,0,0,0-6.919,4.6,4.6,0,0,0-3.391-1.346,4.538,4.538,0,0,0-3.373,1.346,5.172,5.172,0,0,0,0,6.919Z" transform="translate(-165.263 -88.969)" fill="#fff"/>
  <path id="Caminho_21767" data-name="Caminho 21767" d="M320.826,105.723h4.4v23.853h-4.4v-2.009a6.589,6.589,0,0,1-5.52,2.488,7.622,7.622,0,0,1-5.879-2.607,9.6,9.6,0,0,1,0-12.78,7.761,7.761,0,0,1,5.879-2.607,6.709,6.709,0,0,1,5.52,2.488V105.72Zm-8.091,18.793a4.6,4.6,0,0,0,3.391,1.346,4.538,4.538,0,0,0,3.373-1.346,5.172,5.172,0,0,0,0-6.919,4.538,4.538,0,0,0-3.373-1.346,4.6,4.6,0,0,0-3.391,1.346,5.12,5.12,0,0,0,0,6.919Z" transform="translate(-215.194 -74.108)" fill="#fff"/>
  <path id="Caminho_21768" data-name="Caminho 21768" d="M393.335,111.423v17.038h-4.4V115.648h-5.009v12.813h-4.4V115.648H377.08v-4.225h2.455v-.17q0-7.123,8.008-7.123a18.648,18.648,0,0,1,3.986.478v4.022a34.009,34.009,0,0,0-3.986-.272,4.732,4.732,0,0,0-2.727.631,2.6,2.6,0,0,0-.885,2.267v.17h9.4Z" transform="translate(-264.326 -72.993)" fill="#fff"/>
  <path id="Caminho_21769" data-name="Caminho 21769" d="M454.805,112.066a7.766,7.766,0,0,1,5.879,2.607,9.6,9.6,0,0,1,0,12.78,7.761,7.761,0,0,1-5.879,2.607,6.709,6.709,0,0,1-5.52-2.488v2.009h-4.4V105.73h4.4v8.827a6.593,6.593,0,0,1,5.52-2.488Zm-4.189,12.457a4.537,4.537,0,0,0,3.373,1.346,4.6,4.6,0,0,0,3.391-1.346,5.12,5.12,0,0,0,0-6.919,4.6,4.6,0,0,0-3.391-1.346,4.537,4.537,0,0,0-3.373,1.346,5.163,5.163,0,0,0,0,6.919Z" transform="translate(-311.859 -74.115)" fill="#fff"/>
  <path id="Caminho_21770" data-name="Caminho 21770" d="M517.862,137.717q.884,3.2,4.805,3.2a4.491,4.491,0,0,0,3.815-1.7l3.543,2.045A8.448,8.448,0,0,1,522.6,144.9a9.167,9.167,0,0,1-6.782-2.557,8.991,8.991,0,0,1,6.438-15.438,8.123,8.123,0,0,1,6.184,2.59,9,9,0,0,1,2.437,6.4,10.292,10.292,0,0,1-.17,1.806H517.859Zm-.069-3.409h8.69a4.11,4.11,0,0,0-1.552-2.59,4.441,4.441,0,0,0-2.676-.852,4.628,4.628,0,0,0-2.93.9,4.321,4.321,0,0,0-1.534,2.539Z" transform="translate(-359.785 -88.961)" fill="#fff"/>
  <path id="Caminho_21771" data-name="Caminho 21771" d="M586.846,130.651a4.6,4.6,0,0,1,2.027-2.455,6.19,6.19,0,0,1,3.152-.816v4.907a5.17,5.17,0,0,0-3.594.819,3.909,3.909,0,0,0-1.585,3.51v8.145h-4.4V127.724h4.4v2.93Z" transform="translate(-408.286 -89.291)" fill="#fff"/>
  <path id="Caminho_21772" data-name="Caminho 21772" d="M141.184,9.871a4.935,4.935,0,1,0-4.934-4.937,4.935,4.935,0,0,0,4.934,4.937Z" transform="translate(-95.509)" fill="#3c5aa3"/>
  <path id="Caminho_21773" data-name="Caminho 21773" d="M141.184,67.11a4.934,4.934,0,1,0,4.934,4.934A4.935,4.935,0,0,0,141.184,67.11Z" transform="translate(-95.509 -47.043)" fill="#14dfa0"/>
  <path id="Caminho_21774" data-name="Caminho 21774" d="M0,26.112V77.656H8.926V62.49a25.374,25.374,0,0,0,15.606,5.281h11.2V58.845h-11.2c-8.606,0-15.606-6.342-15.606-14.135s7-14.135,15.606-14.135h11.2V21.65h-11.2A25.381,25.381,0,0,0,8.926,26.931v-.816a15.624,15.624,0,0,1,15.6-15.606h11.2V1.58h-11.2A24.558,24.558,0,0,0,0,26.112Z" transform="translate(0 -1.108)" fill="#fff"/>
</svg>
