<svg id="Camada_1-2" xmlns="http://www.w3.org/2000/svg" width="227.522" height="94.79" viewBox="0 0 227.522 94.79">
  <path id="Caminho_21765" data-name="Caminho 21765" d="M168.959,134.858a14.774,14.774,0,0,1-11.012-4.428,15.939,15.939,0,0,1,0-21.879,14.807,14.807,0,0,1,11.012-4.41,15.05,15.05,0,0,1,7.405,1.877,13.77,13.77,0,0,1,5.295,5.084l-5.021,2.91a7.817,7.817,0,0,0-3.121-3.1,10.106,10.106,0,0,0-11.5,1.585,10.567,10.567,0,0,0,0,13.967,9.271,9.271,0,0,0,6.943,2.7,9.415,9.415,0,0,0,4.58-1.118,7.6,7.6,0,0,0,3.1-3.058l5.021,2.91a13.8,13.8,0,0,1-5.276,5.084,15.022,15.022,0,0,1-7.428,1.877Z" transform="translate(-96.726 -65.58)" fill="#fff"/>
  <path id="Caminho_21766" data-name="Caminho 21766" d="M252.9,127.512h5.443v21.1H252.9v-2.488a8.284,8.284,0,0,1-6.88,3.081,9.36,9.36,0,0,1-7.239-3.229,11.883,11.883,0,0,1,0-15.825,9.565,9.565,0,0,1,7.239-3.229A8.284,8.284,0,0,1,252.9,130v-2.488Zm-10.046,14.833a5.619,5.619,0,0,0,4.177,1.666,5.693,5.693,0,0,0,4.2-1.666,6.34,6.34,0,0,0,0-8.568,5.693,5.693,0,0,0-4.2-1.666,5.619,5.619,0,0,0-4.177,1.666,6.4,6.4,0,0,0,0,8.568Z" transform="translate(-148.464 -79.925)" fill="#fff"/>
  <path id="Caminho_21767" data-name="Caminho 21767" d="M324.123,105.724h5.443V135.26h-5.443v-2.488a8.16,8.16,0,0,1-6.835,3.081,9.438,9.438,0,0,1-7.28-3.229,11.883,11.883,0,0,1,0-15.825,9.611,9.611,0,0,1,7.28-3.229,8.308,8.308,0,0,1,6.835,3.081V105.72ZM314.1,129a5.693,5.693,0,0,0,4.2,1.666A5.619,5.619,0,0,0,322.479,129a6.4,6.4,0,0,0,0-8.568,5.619,5.619,0,0,0-4.177-1.666,5.693,5.693,0,0,0-4.2,1.666,6.341,6.341,0,0,0,0,8.568Z" transform="translate(-193.32 -66.575)" fill="#fff"/>
  <path id="Caminho_21768" data-name="Caminho 21768" d="M397.208,113.161v21.1h-5.443V118.393h-6.2v15.866H380.12V118.393h-3.04v-5.232h3.04v-.211q0-8.82,9.916-8.82a23.091,23.091,0,0,1,4.936.592v4.98a42.112,42.112,0,0,0-4.936-.337,5.86,5.86,0,0,0-3.377.781,3.225,3.225,0,0,0-1.1,2.807v.211h11.645Z" transform="translate(-237.457 -65.573)" fill="#fff"/>
  <path id="Caminho_21769" data-name="Caminho 21769" d="M457.168,113.576a9.616,9.616,0,0,1,7.28,3.229,11.883,11.883,0,0,1,0,15.826,9.611,9.611,0,0,1-7.28,3.229,8.308,8.308,0,0,1-6.835-3.081v2.488H444.89V105.73h5.443v10.93a8.164,8.164,0,0,1,6.835-3.081ZM451.981,129a5.619,5.619,0,0,0,4.177,1.666,5.693,5.693,0,0,0,4.2-1.666,6.34,6.34,0,0,0,0-8.568,5.693,5.693,0,0,0-4.2-1.666,5.619,5.619,0,0,0-4.177,1.666,6.393,6.393,0,0,0,0,8.568Z" transform="translate(-280.159 -66.581)" fill="#fff"/>
  <path id="Caminho_21770" data-name="Caminho 21770" d="M518.959,140.292q1.094,3.966,5.95,3.966a5.562,5.562,0,0,0,4.725-2.111l4.388,2.533q-3.121,4.515-9.2,4.514a11.351,11.351,0,0,1-8.4-3.166A11.133,11.133,0,0,1,524.4,126.91a10.059,10.059,0,0,1,7.657,3.207,11.144,11.144,0,0,1,3.018,7.931,12.748,12.748,0,0,1-.211,2.236H518.955Zm-.085-4.221h10.76a5.089,5.089,0,0,0-1.922-3.207,5.5,5.5,0,0,0-3.314-1.055,5.731,5.731,0,0,0-3.629,1.118,5.351,5.351,0,0,0-1.9,3.144Z" transform="translate(-323.213 -79.919)" fill="#fff"/>
  <path id="Caminho_21771" data-name="Caminho 21771" d="M587.893,131.431a5.7,5.7,0,0,1,2.51-3.04,7.665,7.665,0,0,1,3.9-1.011v6.076a6.4,6.4,0,0,0-4.451,1.015,4.84,4.84,0,0,0-1.962,4.347V148.9H582.45v-21.1h5.443v3.629Z" transform="translate(-366.784 -80.215)" fill="#fff"/>
  <path id="Caminho_21772" data-name="Caminho 21772" d="M142.36,12.223a6.111,6.111,0,1,0-6.11-6.113,6.111,6.111,0,0,0,6.11,6.113Z" transform="translate(-85.8)" fill="#fff"/>
  <path id="Caminho_21773" data-name="Caminho 21773" d="M142.36,67.11a6.11,6.11,0,1,0,6.11,6.11A6.111,6.111,0,0,0,142.36,67.11Z" transform="translate(-85.8 -42.261)" fill="#fff"/>
  <path id="Caminho_21774" data-name="Caminho 21774" d="M0,31.957V95.785H11.053V77a31.421,31.421,0,0,0,19.325,6.539H44.244V72.491H30.377c-10.656,0-19.325-7.854-19.325-17.5s8.668-17.5,19.325-17.5H44.244V26.433H30.377a31.429,31.429,0,0,0-19.325,6.539V31.961A19.347,19.347,0,0,1,30.374,12.636H44.24V1.58H30.374A30.409,30.409,0,0,0,0,31.957Z" transform="translate(0 -0.995)" fill="#fff"/>
</svg>
