<svg fill="#14DFA0" width="8" height="13" viewBox="0 0 8 13" xmlns="http://www.w3.org/2000/svg">
  <path d="M2.0999 0.249966L7.71657 5.84997C7.78324 5.91663 7.83035 5.98886 7.8579 6.06663C7.8859 6.14441 7.8999 6.22774 7.8999 6.31663C7.8999 6.40552 7.8859 6.48886 7.8579 6.56663C7.83035 6.64441 7.78324 6.71663 7.71657 6.7833L2.0999 12.4C1.94435 12.5555 1.7499 12.6333 1.51657 12.6333C1.28324 12.6333 1.08324 12.55 0.91657 12.3833C0.749903 12.2166 0.66657 12.0222 0.66657 11.8C0.66657 11.5777 0.749903 11.3833 0.91657 11.2166L5.81657 6.31663L0.916571 1.41663C0.761015 1.26108 0.683237 1.06952 0.683237 0.841966C0.683237 0.613966 0.766571 0.416633 0.933237 0.249966C1.0999 0.083299 1.29435 -3.39561e-05 1.51657 -3.39366e-05C1.73879 -3.39172e-05 1.93324 0.0832991 2.0999 0.249966Z" fill="#14DFA0"/>
</svg>

